HIERARCHY
ROOT Hips
{
  OFFSET 40.9192 92.6879 18.85
  CHANNELS 6 Xposition Yposition Zposition Zrotation Xrotation Yrotation
  JOINT LeftUpLeg
  {
    OFFSET 8.64259 1.95398 -2.38835
    CHANNELS 3 Zrotation Xrotation Yrotation
    JOINT LeftLeg
    {
      OFFSET 43.7702 0 0
      CHANNELS 3 Zrotation Xrotation Yrotation
      JOINT LeftFoot
      {
        OFFSET 40.6238 0 0
        CHANNELS 3 Zrotation Xrotation Yrotation
        JOINT LeftToeBase
        {
          OFFSET 12.7242 0 0
          CHANNELS 3 Zrotation Xrotation Yrotation
          End Site
          {
            OFFSET 0 0 0
          }
        }
      }
    }
  }
  JOINT RightUpLeg
  {
    OFFSET -8.2249 1.95398 -2.59336
    CHANNELS 3 Zrotation Xrotation Yrotation
    JOINT RightLeg
    {
      OFFSET 43.5653 0 0
      CHANNELS 3 Zrotation Xrotation Yrotation
      JOINT RightFoot
      {
        OFFSET 40.6238 0 0
        CHANNELS 3 Zrotation Xrotation Yrotation
        JOINT RightToeBase
        {
          OFFSET 12.7242 0 0
          CHANNELS 3 Zrotation Xrotation Yrotation
          End Site
          {
            OFFSET 0 0 0
          }
        }
      }
    }
  }
  JOINT Spine
  {
    OFFSET 0.165834 0.87714 6.61349
    CHANNELS 3 Zrotation Xrotation Yrotation
    JOINT Spine1
    {
      OFFSET 7.38963 1.71661e-005 0
      CHANNELS 3 Zrotation Xrotation Yrotation
      JOINT Spine2
      {
        OFFSET 11.9445 1.14441e-005 0
        CHANNELS 3 Zrotation Xrotation Yrotation
        JOINT Spine3
        {
          OFFSET 14.7254 4.19617e-005 0
          CHANNELS 3 Zrotation Xrotation Yrotation
          JOINT Spine4
          {
            OFFSET 10.9679 0 0
            CHANNELS 3 Zrotation Xrotation Yrotation
            JOINT RightShoulder
            {
              OFFSET 2.46616 -1.6653 3.69651
              CHANNELS 3 Zrotation Xrotation Yrotation
              JOINT RightArm
              {
                OFFSET 13.0012 0 0
                CHANNELS 3 Zrotation Xrotation Yrotation
                JOINT RightForeArm
                {
                  OFFSET 28.7848 1.52588e-005 0
                  CHANNELS 3 Zrotation Xrotation Yrotation
                  JOINT RightHand
                  {
                    OFFSET 26.5688 1.52588e-005 0
                    CHANNELS 3 Zrotation Xrotation Yrotation
                    End Site
                    {
                      OFFSET 0 0 0
                    }
                  }
                }
              }
            }
            JOINT LeftShoulder
            {
              OFFSET 2.38034 -1.29275 -3.7523
              CHANNELS 3 Zrotation Xrotation Yrotation
              JOINT LeftArm
              {
                OFFSET 16.3182 6.10351e-005 0
                CHANNELS 3 Zrotation Xrotation Yrotation
                JOINT LeftForeArm
                {
                  OFFSET 27.0901 0 0
                  CHANNELS 3 Zrotation Xrotation Yrotation
                  JOINT LeftHand
                  {
                    OFFSET 24.5451 1.52588e-005 0
                    CHANNELS 3 Zrotation Xrotation Yrotation
                    End Site
                    {
                      OFFSET 0 0 0
                    }
                  }
                }
              }
            }
            JOINT Neck
            {
              OFFSET 5.0226 -0.0266342 0
              CHANNELS 3 Zrotation Xrotation Yrotation
              JOINT Head
              {
                OFFSET 6.69363 2.86102e-005 0
                CHANNELS 3 Zrotation Xrotation Yrotation
                End Site
                {
                  OFFSET 0 0 0
                }
              }
            }
          }
        }
      }
    }
  }
}
MOTION
Frames:	9
Frame Time:	0.0416667
-6.96848 97.62 -79.6207 -101.744 -81.9372 -100.417 -170.131 2.30295 94.6496 -12.5199 7.51755 -1.28891 65.3467 3.97181 0.115319 30.2965 0.941888 3.15254 173.044 2.14259 87.7461 -11.612 -12.7737 -1.51813 65.2414 -3.16153 -1.77761 29.5931 0.219206 -3.11571 0.166539 7.0095 -89.8652 12.8545 0.394013 0.222114 1.18359 0.404745 0.204487 -21.3517 0.310314 0.330654 -1.33908 0.310319 0.330662 92.4868 -47.065 -97.5688 32.327 -8.80636 1.92973 -11.0551 -30.0065 -42.3894 0.0936693 -0.573606 4.51404 -97.1805 -50.5551 68.2869 -22.2646 17.6066 -1.59279 0.98151 14.7532 -28.0922 13.9518 1.03702 3.4794 8.15547 2.3718 1.59427 0.723393 2.05871 0.420193 
-6.95569 97.6292 -79.6077 -101.397 -81.8446 -99.8672 -169.793 2.50622 95.0018 -12.7293 8.27865 -1.54917 65.3171 3.9355 0.429724 30.6974 1.27608 3.16008 173.074 2.00083 87.91 -11.3016 -12.885 -1.44046 65.1055 -3.14592 -1.77711 29.4652 0.230494 -3.35818 0.172554 7.0102 -89.897 12.8532 0.391674 0.158856 1.18233 0.398633 0.141447 -21.3531 0.32615 0.269338 -1.34045 0.326145 0.269328 92.3781 -47.1078 -97.7343 32.1347 -8.91115 1.85641 -10.3807 -29.6727 -41.7813 -0.250064 -0.577973 4.12469 -97.2047 -50.6631 68.2862 -22.3062 17.444 -1.36971 1.30446 14.8271 -28.526 13.6139 1.04978 3.73675 8.26484 2.53547 0.591496 0.867565 2.47847 1.93367 
-6.90099 97.6391 -79.566 -102.899 -81.8119 -101.062 -169.494 2.54802 95.3832 -13.094 8.38991 -1.69308 65.4591 3.85054 0.507245 30.9842 1.44836 4.07188 173.084 1.46896 88.0938 -10.7269 -13.1284 -1.34466 65.0099 -3.17042 -1.80839 29.3074 0.257435 -3.86719 0.182354 7.05005 -89.9213 12.7737 0.399799 0.109671 1.10279 0.404242 0.0919606 -21.4327 0.348351 0.224754 -1.42008 0.348357 0.224763 92.4789 -47.0669 -97.5812 32.2952 -8.89996 1.69206 -10.2662 -29.6021 -42.186 -0.796874 -0.622259 5.20841 -97.2058 -50.5237 68.2396 -22.1549 17.7198 -1.45013 1.05263 14.6005 -28.5027 13.8295 1.02312 3.4407 8.14005 2.53372 1.12201 0.846076 2.33775 1.07217 
-6.90719 97.6255 -79.5541 -103.874 -81.617 -101.841 -169.226 2.34318 95.6444 -13.0276 8.9188 -1.84779 65.5875 4.08307 1.37729 30.9058 1.37031 4.22784 173.176 1.4258 88.2661 -11.0456 -13.2983 -1.34344 65.1231 -3.23756 -1.84883 29.1166 0.276883 -4.23167 0.202658 7.07924 -89.9337 12.7153 0.434159 0.0810967 1.04447 0.437312 0.0619057 -21.4912 0.389718 0.207836 -1.47852 0.389716 0.207826 92.5772 -47.2303 -97.3923 32.11 -9.11197 1.53529 -9.60656 -29.1063 -42.297 -1.04499 -0.630382 5.61506 -97.0271 -50.2911 68.4245 -22.2305 17.9077 -1.45463 0.817594 13.8178 -28.906 13.5282 1.10543 4.18354 8.26716 2.59201 1.00087 0.525016 2.40892 0.9949 
-7.02138 97.611 -79.508 -102.014 -81.5696 -99.9663 -169.143 2.54623 95.7672 -12.982 9.11329 -1.91248 65.4323 4.03658 1.88619 31.2756 1.77153 2.96443 173.366 1.88759 88.4416 -11.5552 -13.1878 -1.40421 65.4295 -3.37478 -1.92293 28.857 0.277166 -4.2893 0.214716 7.05645 -89.9177 12.7608 0.465756 0.109061 1.08995 0.470104 0.0884503 -21.4457 0.411443 0.244 -1.43307 0.411444 0.243994 92.5903 -47.4009 -97.3377 32.2227 -9.09587 1.70105 -10.3783 -29.4075 -42.7892 -1.04751 -0.641247 5.67261 -96.8521 -49.9745 68.5781 -22.4966 17.9368 -1.43298 0.891571 13.4967 -29.3182 13.2447 1.24665 5.35774 8.32855 2.5772 0.499339 0.455467 2.5146 1.61501 
-7.21827 97.5985 -79.5808 -103.182 -81.6054 -101.229 -169.137 2.42217 95.8676 -13.0069 9.03625 -1.82928 65.6146 4.25421 2.09019 31.0421 1.65809 1.83105 173.487 2.24649 88.5172 -12.6097 -12.9385 -1.48411 65.7114 -3.49195 -1.98006 29.2627 0.30099 -4.59158 0.193406 7.07571 -89.8927 12.7222 0.435433 0.163041 1.05129 0.442188 0.143708 -21.4842 0.366303 0.286378 -1.47157 0.366298 0.28636 92.4977 -47.4696 -97.4715 32.4455 -8.94338 1.87349 -10.7995 -29.5819 -42.7126 -0.997177 -0.637642 5.36204 -96.6329 -49.8045 68.8447 -22.6137 17.8836 -1.29751 1.42601 14.1098 -29.6991 12.6427 1.27516 5.97328 8.25572 2.63276 0.543037 0.521059 2.5614 1.59135 
-7.52753 97.5518 -79.7655 -106.651 -81.4371 -104.769 -168.872 1.89176 96.162 -12.8306 9.38697 -1.90842 65.7279 4.56816 2.21177 30.8324 1.51077 1.50992 173.792 2.64444 88.7344 -14.4323 -12.5653 -1.69937 66.4789 -3.79298 -2.12292 28.8112 0.338663 -5.26231 0.192705 7.13519 -89.8572 12.6031 0.450957 0.232681 0.932176 0.460758 0.212602 -21.6032 0.360177 0.357453 -1.5906 0.360172 0.357445 92.5013 -47.5486 -97.4505 32.7445 -9.018 2.06818 -10.2299 -28.9655 -42.4655 -1.30391 -0.641468 5.24621 -96.5531 -49.6329 68.9068 -22.5426 17.9559 -0.946659 2.08649 14.6977 -30.4811 11.8374 1.28246 6.60837 8.06484 2.60165 0.205816 0.801295 2.60299 1.70274 
-7.90311 97.5162 -79.8609 -108.508 -81.4804 -106.568 -168.763 1.812 96.5084 -12.9382 9.74134 -1.8166 65.6719 4.7063 2.67662 31.157 1.82282 0.785956 174.174 3.19076 89.1278 -16.1084 -11.9634 -1.81973 66.9761 -4.00624 -2.22145 28.7378 0.377164 -5.85467 0.175663 7.16709 -89.8218 12.5391 0.433878 0.305627 0.868177 0.446909 0.286221 -21.667 0.321971 0.421894 -1.6544 0.321967 0.421885 92.7111 -47.7361 -97.0813 32.9485 -9.45612 2.29582 -9.30943 -27.3729 -43.2119 -1.77346 -0.6555 5.79839 -96.2918 -49.1767 69.1464 -22.6671 17.9579 -0.835867 2.00961 14.3349 -30.5309 11.8139 1.12451 5.36762 8.07626 2.64639 -0.351711 0.803777 2.76838 2.1039 
-8.24096 97.4529 -79.9321 -110.097 -81.2847 -107.807 -169.02 1.81913 96.817 -13.4584 9.80487 -1.23184 65.5055 4.67945 3.29397 32.1717 2.6135 1.15437 174.62 3.61402 89.7419 -17.6119 -11.6421 -1.8304 67.2654 -4.18511 -2.31475 29.0115 0.424176 -6.61787 0.182254 7.20585 -89.8159 12.4615 0.449752 0.316053 0.79059 0.463223 0.295954 -21.7447 0.333968 0.436616 -1.73201 0.333974 0.436609 92.9357 -47.6125 -96.7487 33.5797 -9.70884 2.52419 -8.16585 -26.6752 -42.2345 -4.02794 -0.780976 5.59377 -95.7991 -48.458 69.6503 -23.0038 18.3214 -0.734386 2.7822 14.5725 -32.0588 10.6971 1.08307 5.84839 8.232 2.6937 -0.81086 0.692125 2.91084 2.38267 
